<svg width="276" height="193" viewBox="0 0 276 193" fill="none" xmlns="http://www.w3.org/2000/svg">
<g clip-path="url(#clip0_18_314)">
<path d="M233.035 134.016C232.749 133.7 232.536 133.325 232.411 132.918C232.285 132.511 232.251 132.081 232.309 131.659C232.368 131.237 232.518 130.833 232.75 130.476C232.982 130.118 233.289 129.816 233.65 129.59L231.34 119.497L236.379 121.382L237.801 130.678C238.14 131.31 238.236 132.044 238.07 132.742C237.904 133.44 237.488 134.052 236.9 134.463C236.313 134.875 235.595 135.057 234.882 134.974C234.17 134.891 233.513 134.55 233.035 134.016Z" fill="#FFB8B8"/>
<path d="M232.686 126.005L228.256 117.44L228.855 95.8724L229.14 96.4722C229.471 97.171 237.245 113.627 236.69 119.136L237.579 124.17L232.686 126.005Z" fill="#F0F1F5"/>
<path d="M229.798 189.304H233.35L235.04 175.602L229.797 175.602L229.798 189.304Z" fill="#FFB8B8"/>
<path d="M228.892 188.144L235.887 188.144H235.888C237.07 188.144 238.204 188.613 239.04 189.449C239.876 190.285 240.346 191.419 240.346 192.602V192.747L228.892 192.747L228.892 188.144Z" fill="#12102B"/>
<path d="M194.698 186.604L198.121 187.555L203.42 174.807L198.369 173.403L194.698 186.604Z" fill="#FFB8B8"/>
<path d="M194.136 185.244L200.876 187.118L200.876 187.118C202.016 187.435 202.982 188.191 203.564 189.221C204.145 190.25 204.294 191.468 203.977 192.608L203.938 192.747L192.903 189.679L194.136 185.244Z" fill="#12102B"/>
<path d="M226.256 183.962L219.087 132.63L203.602 183.672L191.427 179.514L208.877 111.167L208.992 111.159L227.272 109.888L240.48 179.813L226.256 183.962Z" fill="#12102B"/>
<path d="M224.36 86.9785C224.36 86.9785 217.695 83.5014 208.713 84.9502C208.713 84.9502 203.932 96.4846 208.713 101.076L210.017 112.622C210.017 112.622 222.187 119.866 226.243 111.463L225.664 101.901C225.664 101.901 228.561 97.3151 226.243 93.9578C224.854 91.9069 224.191 89.45 224.36 86.9785Z" fill="#A687FF"/>
<path d="M225.204 139.495L226.374 115.222L223.063 86.3476L223.215 86.3246C227.558 85.6699 228.951 93.1512 229.008 93.4699L236.566 136.206L225.204 139.495Z" fill="#F0F1F5"/>
<path d="M210.467 139.747L197.105 138.263L197.108 138.117C197.156 136.138 198.306 89.6268 201.529 86.3327C204.77 83.0189 210.888 84.4527 211.147 84.5157L211.275 84.5468L210.176 104.228L210.467 139.747Z" fill="#F0F1F5"/>
<path d="M212.928 111.949C212.524 112.081 212.095 112.124 211.672 112.073C211.249 112.022 210.842 111.879 210.481 111.654C210.119 111.429 209.811 111.127 209.579 110.77C209.346 110.414 209.195 110.01 209.135 109.588L198.974 107.597L202.744 103.759L211.816 106.238C212.531 106.185 213.241 106.395 213.811 106.831C214.381 107.266 214.771 107.895 214.909 108.599C215.046 109.303 214.92 110.033 214.555 110.65C214.19 111.267 213.611 111.729 212.928 111.949Z" fill="#FFB8B8"/>
<path d="M207.506 109.618L204.195 108.907C199.307 110.377 190.776 105.202 187.327 102.903C186.679 102.47 186.468 101.613 186.702 100.356C187.047 98.5976 188.016 97.023 189.431 95.9231L201.576 86.2938L204.641 85.7812L205.551 90.9407L197.814 99.2514L209.204 105.451L207.506 109.618Z" fill="#F0F1F5"/>
<path d="M206.197 80.5823V73.892C206.197 71.0615 207.321 68.3469 209.323 66.3454C211.324 64.3439 214.039 63.2194 216.869 63.2194C219.7 63.2194 222.414 64.3439 224.416 66.3454C226.417 68.3469 227.542 71.0615 227.542 73.892V80.5823C227.541 80.9624 227.39 81.3268 227.121 81.5956C226.853 81.8643 226.488 82.0155 226.108 82.016H207.63C207.25 82.0155 206.886 81.8643 206.617 81.5956C206.348 81.3268 206.197 80.9624 206.197 80.5823Z" fill="#12102B"/>
<path d="M216.44 81.9501C220.762 81.9501 224.265 78.4468 224.265 74.1253C224.265 69.8038 220.762 66.3005 216.44 66.3005C212.119 66.3005 208.615 69.8038 208.615 74.1253C208.615 78.4468 212.119 81.9501 216.44 81.9501Z" fill="#FFB8B8"/>
<path d="M208.401 74.0952C208.326 74.0089 208.271 73.9076 208.238 73.798C208.206 73.6884 208.198 73.5732 208.214 73.4602L209.141 67.0058C209.16 66.8744 209.21 66.7498 209.289 66.643C209.368 66.5363 209.472 66.4508 209.592 66.3944C214.323 64.1802 219.121 64.1774 223.852 66.386C223.977 66.4455 224.085 66.5366 224.165 66.6503C224.245 66.764 224.294 66.8964 224.307 67.0347L224.926 73.4975C224.936 73.608 224.924 73.7195 224.889 73.8249C224.854 73.9302 224.797 74.0271 224.722 74.1092C224.648 74.1914 224.557 74.257 224.455 74.3019C224.354 74.3468 224.244 74.37 224.133 74.3699H222.564C222.412 74.3696 222.264 74.3262 222.136 74.2448C222.008 74.1635 221.906 74.0475 221.842 73.9104L221.165 72.4593C221.121 72.3654 221.048 72.2882 220.956 72.2395C220.865 72.1908 220.76 72.1732 220.657 72.1893C220.555 72.2054 220.46 72.2544 220.388 72.3289C220.316 72.4034 220.27 72.4993 220.257 72.6022L220.124 73.6721C220.099 73.8646 220.006 74.0417 219.86 74.1702C219.715 74.2987 219.527 74.3697 219.333 74.3699H209.003C208.889 74.3699 208.776 74.3454 208.672 74.298C208.568 74.2506 208.476 74.1815 208.401 74.0952Z" fill="#12102B"/>
<path d="M175.54 12.8601H0V122.171H175.54V12.8601Z" fill="#E6E6E6"/>
<path d="M43.9216 33.9185H11.7714V54.8161H43.9216V33.9185Z" fill="white"/>
<path d="M83.8708 33.9185H51.7205V54.8161H83.8708V33.9185Z" fill="white"/>
<path d="M123.82 33.9185H91.6696V54.8161H123.82V33.9185Z" fill="white"/>
<path d="M163.769 33.9185H131.619V54.8161H163.769V33.9185Z" fill="white"/>
<path d="M43.9216 63.4967H11.7714V84.3944H43.9216V63.4967Z" fill="white"/>
<path d="M83.8708 63.4967H51.7205V84.3944H83.8708V63.4967Z" fill="white"/>
<path d="M123.82 63.4967H91.6696V84.3944H123.82V63.4967Z" fill="white"/>
<path d="M163.769 63.4967H131.619V84.3944H163.769V63.4967Z" fill="white"/>
<path d="M43.9216 93.075H11.7714V113.973H43.9216V93.075Z" fill="white"/>
<path d="M83.8708 93.075H51.7205V113.973H83.8708V93.075Z" fill="white"/>
<path d="M123.82 93.075H91.6696V113.973H123.82V93.075Z" fill="white"/>
<path d="M163.769 93.075H131.619V113.973H163.769V93.075Z" fill="white"/>
<path d="M45.9748 25.7202C48.6383 25.7202 50.7974 23.5611 50.7974 20.8977C50.7974 18.2343 48.6383 16.0751 45.9748 16.0751C43.3114 16.0751 41.1523 18.2343 41.1523 20.8977C41.1523 23.5611 43.3114 25.7202 45.9748 25.7202Z" fill="white"/>
<path d="M125.708 25.7202C128.371 25.7202 130.53 23.5611 130.53 20.8977C130.53 18.2343 128.371 16.0751 125.708 16.0751C123.044 16.0751 120.885 18.2343 120.885 20.8977C120.885 23.5611 123.044 25.7202 125.708 25.7202Z" fill="white"/>
<path d="M47.9039 0H44.0459V22.1837H47.9039V0Z" fill="#E6E6E6"/>
<path d="M127.636 0H123.778V22.1837H127.636V0Z" fill="#E6E6E6"/>
<path d="M154.964 44.3673C154.963 46.1132 154.331 47.7999 153.185 49.1174C152.04 50.435 150.457 51.2948 148.728 51.539C147 51.7833 145.241 51.3954 143.775 50.4468C142.309 49.4981 141.235 48.0524 140.75 46.3753C140.265 44.6981 140.401 42.9022 141.134 41.3175C141.867 39.7328 143.147 38.4658 144.739 37.7492C146.331 37.0327 148.128 36.9147 149.8 37.4171C151.472 37.9194 152.907 39.0083 153.841 40.4836C154.576 41.6454 154.966 42.9924 154.964 44.3673Z" fill="#A687FF"/>
<path d="M153.841 40.4836L146.684 47.639C146.234 46.9426 143.728 43.7064 143.728 43.7064C144.049 43.3818 144.392 43.0793 144.754 42.8009L146.832 45.5715L153.003 39.401C153.315 39.7346 153.596 40.0971 153.841 40.4836Z" fill="white"/>
<path d="M75.066 73.9456C75.0643 75.6915 74.4326 77.3782 73.287 78.6957C72.1415 80.0132 70.5589 80.8731 68.8301 81.1173C67.1014 81.3615 65.3426 80.9737 63.8768 80.025C62.4111 79.0764 61.337 77.6307 60.8518 75.9535C60.3665 74.2764 60.5029 72.4805 61.2356 70.8958C61.9684 69.3111 63.2485 68.0441 64.8406 67.3275C66.4327 66.6109 68.2299 66.493 69.902 66.9953C71.5741 67.4977 73.0087 68.5865 73.9423 70.0619C74.6776 71.2237 75.0673 72.5706 75.066 73.9456Z" fill="#A687FF"/>
<path d="M73.9423 70.0619L66.7857 77.2172C66.3359 76.5208 63.8299 73.2846 63.8299 73.2846C64.1511 72.96 64.4938 72.6575 64.8557 72.3791L66.9337 75.1498L73.1043 68.9792C73.4172 69.3128 73.6978 69.6753 73.9423 70.0619Z" fill="white"/>
<path d="M35.1169 73.9456C35.1152 75.6915 34.4835 77.3782 33.338 78.6957C32.1924 80.0133 30.6098 80.8731 28.881 81.1174C27.1523 81.3616 25.3934 80.9737 23.9277 80.0251C22.462 79.0764 21.3878 77.6307 20.9026 75.9536C20.4174 74.2764 20.5537 72.4805 21.2865 70.8958C22.0193 69.3111 23.2993 68.0441 24.8914 67.3275C26.4835 66.6109 28.2808 66.493 29.9529 66.9953C31.625 67.4977 33.0596 68.5866 33.9933 70.0619C34.7285 71.2237 35.1182 72.5707 35.1169 73.9456Z" fill="#A687FF"/>
<path d="M33.9932 70.0619L26.8366 77.2172C26.3868 76.5208 23.8809 73.2846 23.8809 73.2846C24.202 72.96 24.5447 72.6575 24.9066 72.3791L26.9846 75.1498L33.1552 68.9792C33.4681 69.3128 33.7487 69.6753 33.9932 70.0619Z" fill="white"/>
<path d="M275.681 192.98H154.3C154.216 192.98 154.135 192.946 154.075 192.886C154.015 192.827 153.982 192.746 153.982 192.661C153.982 192.577 154.015 192.496 154.075 192.436C154.135 192.376 154.216 192.343 154.3 192.343H275.681C275.766 192.343 275.847 192.376 275.907 192.436C275.966 192.496 276 192.577 276 192.661C276 192.746 275.966 192.827 275.907 192.886C275.847 192.946 275.766 192.98 275.681 192.98Z" fill="#F0F1F5"/>
</g>
<defs>
<clipPath id="clip0_18_314">
<rect width="276" height="192.98" fill="white"/>
</clipPath>
</defs>
</svg>
