<svg width="270" height="179" viewBox="0 0 270 179" fill="none" xmlns="http://www.w3.org/2000/svg">
<g clip-path="url(#clip0_18_268)">
<path d="M259.446 119.667C257.496 121.797 255.079 123.382 252.455 124.613H252.452C252.205 124.73 251.958 124.844 251.708 124.952H251.705L251.702 124.955L251.698 124.952H251.695C251.695 124.952 251.695 124.953 251.695 124.953C251.695 124.954 251.695 124.954 251.694 124.954C251.694 124.955 251.694 124.955 251.693 124.955C251.693 124.955 251.693 124.955 251.692 124.955H251.689L251.686 124.952C251.683 124.955 251.683 124.955 251.679 124.952L251.676 124.955L251.673 124.952H251.67C251.667 124.955 251.667 124.955 251.664 124.952H251.66C249.904 125.712 248.101 126.356 246.261 126.883C235.444 129.952 224.074 130.545 212.995 128.62C212.783 128.582 212.574 128.544 212.362 128.506V102.836C212.571 102.747 212.783 102.659 212.995 102.573C214.378 102 215.778 101.474 217.195 100.994C219.233 100.298 221.3 99.7006 223.395 99.2026C230.23 97.5482 237.283 96.9779 244.296 97.5126C245.571 97.6075 246.844 97.7447 248.113 97.924C250.768 98.2943 253.553 98.94 256.003 100.06H256.006C256.363 100.228 256.715 100.402 257.063 100.589C259.24 101.769 261.076 103.393 262.196 105.618C262.599 106.417 262.888 107.268 263.057 108.147V108.153C263.12 108.457 263.165 108.764 263.199 109.068C263.598 112.815 262.044 116.825 259.446 119.667Z" fill="#F2F2F2"/>
<path d="M263.199 109.067C263.168 109.075 263.137 109.079 263.105 109.08C257.683 109.318 252.269 109.67 246.862 110.137H246.853C246.831 110.14 246.812 110.14 246.79 110.144C241.239 110.625 235.699 111.227 230.171 111.951C229.937 111.982 229.706 112.014 229.475 112.042C225.652 112.552 221.836 113.117 218.027 113.739C216.347 114.014 214.669 114.301 212.995 114.6C212.783 114.638 212.574 114.672 212.362 114.714V113.755C212.574 113.714 212.786 113.679 212.995 113.641C218.572 112.653 224.167 111.791 229.782 111.055C231.193 110.865 232.607 110.686 234.023 110.517C238.112 110.023 242.207 109.597 246.309 109.238C246.609 109.213 246.907 109.188 247.207 109.162C252.458 108.716 257.716 108.378 262.981 108.147C263.007 108.145 263.032 108.147 263.057 108.153C263.564 108.197 263.671 108.957 263.199 109.067Z" fill="white"/>
<path d="M251.941 124.019C245.187 124.069 238.533 121.205 233.756 116.465C232.408 115.122 231.221 113.628 230.217 112.012C229.895 111.496 229.141 112.065 229.461 112.577C233.171 118.527 239.351 122.766 246.164 124.324C248.099 124.763 250.078 124.974 252.062 124.955C252.668 124.951 252.542 124.015 251.941 124.019V124.019Z" fill="white"/>
<path d="M223.395 99.2026C223.366 99.2916 223.314 99.3714 223.245 99.4341C223.175 99.4969 223.091 99.5404 222.999 99.5602C221.452 99.9658 219.956 100.55 218.543 101.301C216.48 102.391 214.607 103.807 212.995 105.494C212.91 105.58 212.828 105.665 212.749 105.754C212.615 105.893 212.489 106.036 212.362 106.181V104.801C212.565 104.586 212.777 104.374 212.995 104.171C214.268 102.953 215.677 101.887 217.195 100.994C219.233 100.298 221.3 99.7005 223.395 99.2026Z" fill="white"/>
<path d="M256.562 99.8108C252.266 101.657 248.672 104.827 246.301 108.858C246.253 108.973 246.253 109.103 246.3 109.218C246.347 109.334 246.437 109.427 246.552 109.476C246.668 109.522 246.796 109.521 246.912 109.474C247.027 109.428 247.12 109.339 247.171 109.225C249.433 105.418 252.846 102.428 256.917 100.685C257.476 100.447 257.122 99.5716 256.562 99.8108L256.562 99.8108Z" fill="white"/>
<path d="M269.513 72.9311C268.779 75.7225 267.371 78.2512 265.621 80.5584L265.617 80.5616C265.456 80.7768 265.288 80.9952 265.114 81.204V81.2072C263.899 82.7042 262.587 84.1198 261.187 85.445C256.152 90.2424 250.466 94.3051 244.296 97.5126C234.589 102.583 223.74 105.58 212.995 105.751C212.913 105.754 212.831 105.754 212.749 105.754C212.619 105.757 212.489 105.757 212.362 105.757V91.3727C212.568 90.9803 212.78 90.5879 212.995 90.1986C215.788 85.1742 219.193 80.5158 223.132 76.3302C223.227 76.2257 223.325 76.1213 223.424 76.02C224.905 74.4566 226.457 72.968 228.082 71.5544C234.332 66.059 241.555 61.7814 249.379 58.9424C251.901 58.0372 254.667 57.3125 257.357 57.1701C257.753 57.1479 258.145 57.1384 258.541 57.1416C261.019 57.1764 263.396 57.7619 265.424 59.2114C266.151 59.7332 266.803 60.3518 267.361 61.0502C267.558 61.2939 267.738 61.5439 267.912 61.8003V61.8034C270.007 64.9366 270.495 69.206 269.513 72.9311Z" fill="#F2F2F2"/>
<path d="M267.912 61.8003V61.8034C267.889 61.8239 267.863 61.8419 267.836 61.8572C263.152 64.5822 258.527 67.4063 253.961 70.3296C253.955 70.3327 253.952 70.3359 253.945 70.3391C253.927 70.3518 253.908 70.3634 253.888 70.3739C249.195 73.3805 244.568 76.4884 240.007 79.6976C239.817 79.8305 239.624 79.9666 239.431 80.1027C236.282 82.3276 233.166 84.5999 230.082 86.9198C224.259 91.3063 218.563 95.8552 212.995 100.567C212.783 100.744 212.574 100.924 212.362 101.105V99.8736C212.571 99.6932 212.783 99.5128 212.995 99.3355C215.128 97.5347 217.281 95.7592 219.452 94.0091C220.1 93.4869 220.752 92.9647 221.404 92.4488C227.196 87.8376 233.118 83.3983 239.169 79.1311H239.172C240.362 78.2924 241.554 77.4611 242.748 76.6371C246.141 74.3015 249.572 72.0217 253.04 69.7979C253.29 69.6365 253.544 69.4751 253.797 69.3136C258.237 66.4779 262.735 63.735 267.292 61.085C267.314 61.0715 267.337 61.0598 267.361 61.0502C267.836 60.8603 268.282 61.4869 267.912 61.8003Z" fill="white"/>
<path d="M264.889 80.2715C258.931 83.4528 251.709 84.0075 245.276 82.0289C243.459 81.466 241.713 80.6945 240.073 79.7297C239.548 79.422 239.146 80.2762 239.666 80.5813C245.716 84.1271 253.157 85.0099 259.915 83.225C261.832 82.7144 263.683 81.9825 265.431 81.0441C265.966 80.7588 265.42 79.9882 264.889 80.2715V80.2715Z" fill="white"/>
<path d="M220.313 91.8512C220.018 90.1945 219.917 88.509 220.011 86.8288C220.225 82.997 221.398 79.2803 223.423 76.0206C224.906 74.4577 226.459 72.9689 228.083 71.5543C228.098 71.6468 228.089 71.7417 228.057 71.8297C228.024 71.9176 227.969 71.9956 227.898 72.0559C226.716 73.1342 225.663 74.3457 224.761 75.6662C221.536 80.3724 220.278 86.1521 221.253 91.7729C221.269 91.8367 221.268 91.9034 221.251 91.9667C221.233 92.0301 221.2 92.0879 221.154 92.1346C221.086 92.1936 221.004 92.2338 220.916 92.2512C220.828 92.2687 220.737 92.2628 220.652 92.2342C220.567 92.2055 220.491 92.1551 220.431 92.0879C220.372 92.0207 220.331 91.9391 220.313 91.8512Z" fill="white"/>
<path d="M257.736 56.6866C254.789 60.3174 253.078 64.794 252.852 69.4647C252.863 69.5891 252.923 69.7042 253.018 69.7849C253.113 69.8656 253.237 69.9054 253.361 69.8958C253.485 69.8825 253.599 69.8222 253.679 69.7274C253.759 69.6325 253.8 69.5104 253.792 69.3864C254.027 64.964 255.66 60.7304 258.457 57.2962C258.84 56.8253 258.121 56.2148 257.736 56.6866Z" fill="white"/>
<path d="M224.962 67.0856V67.0888C224.94 67.361 224.914 67.63 224.886 67.899V67.9053C224.666 69.8202 224.322 71.7188 223.857 73.5894C223.636 74.5072 223.395 75.4187 223.132 76.3302C223.101 76.4473 223.066 76.5644 223.031 76.6783V76.6815C222.258 79.3324 221.335 81.9371 220.265 84.4829C218.297 89.1699 215.862 93.6466 212.995 97.8449C212.79 98.1519 212.578 98.4589 212.362 98.7627V49.201C212.574 49.1883 212.783 49.1883 212.995 49.1946C213.097 49.1946 213.198 49.1978 213.299 49.2041C214.192 49.2511 215.074 49.4226 215.92 49.7137C216.217 49.8118 216.505 49.9226 216.79 50.046C220.243 51.5588 222.955 54.8946 224.132 58.5626C225.015 61.3097 225.193 64.1993 224.962 67.0856Z" fill="#F2F2F2"/>
<path d="M216.79 50.0459C216.783 50.077 216.771 50.1068 216.755 50.1346C215.473 52.6253 214.22 55.1287 212.995 57.6448C212.783 58.0784 212.571 58.5151 212.362 58.9487V56.7966C212.571 56.3662 212.782 55.9357 212.995 55.5053C213.942 53.5874 214.904 51.678 215.882 49.7769C215.892 49.7547 215.905 49.7335 215.92 49.7136C216.211 49.2959 216.932 49.5807 216.79 50.0459Z" fill="white"/>
<path d="M225.063 67.5951C225.006 67.6964 224.949 67.7977 224.886 67.8989C223.956 69.5185 222.85 71.0299 221.588 72.4057C219.163 75.0363 216.243 77.1626 212.995 78.6626C212.786 78.7639 212.574 78.8589 212.362 78.9475V77.9189C212.574 77.824 212.786 77.7258 212.995 77.6246C217.697 75.382 221.602 71.7583 224.189 67.2375C224.227 67.1729 224.278 67.1172 224.338 67.0739C224.399 67.0307 224.468 67.001 224.542 66.9869C224.615 66.9728 224.69 66.9746 224.763 66.9922C224.835 67.0097 224.903 67.0427 224.962 67.0887C225.002 67.1153 225.036 67.1495 225.063 67.1893C225.089 67.2292 225.108 67.2739 225.117 67.3209C225.127 67.368 225.127 67.4164 225.117 67.4634C225.108 67.5105 225.09 67.5552 225.063 67.5951Z" fill="white"/>
<path d="M212.995 10.444V34.497H212.362V34.2407H0.632973V34.497H0V10.444C0.0027181 7.67495 1.10394 5.02004 3.06199 3.06199C5.02004 1.10394 7.67495 0.0027181 10.444 0H202.551C205.32 0.0027181 207.975 1.10394 209.933 3.06199C211.891 5.02004 212.993 7.67495 212.995 10.444Z" fill="#A687FF"/>
<path d="M202.551 0H10.444C7.67495 0.0027181 5.02004 1.10394 3.06199 3.06199C1.10394 5.02004 0.0027181 7.67495 0 10.444V147.799C0.0027181 150.568 1.10394 153.223 3.06199 155.181C5.02004 157.139 7.67495 158.24 10.444 158.243H202.551C205.32 158.24 207.975 157.139 209.933 155.181C211.891 153.223 212.993 150.568 212.995 147.799V10.444C212.993 7.67495 211.891 5.02004 209.933 3.06199C207.975 1.10394 205.32 0.0027181 202.551 0ZM212.362 147.799C212.359 150.4 211.324 152.894 209.485 154.733C207.646 156.572 205.152 157.607 202.551 157.61H10.444C7.84301 157.607 5.34945 156.572 3.51023 154.733C1.67102 152.894 0.636291 150.4 0.632973 147.799V10.444C0.636291 7.84301 1.67102 5.34945 3.51023 3.51024C5.34945 1.67102 7.84301 0.636291 10.444 0.632973H202.551C205.152 0.636292 207.646 1.67102 209.485 3.51024C211.324 5.34945 212.359 7.84301 212.362 10.444V147.799Z" fill="#9587FF"/>
<path d="M43.0421 23.5782C46.5379 23.5782 49.3719 20.7443 49.3719 17.2485C49.3719 13.7527 46.5379 10.9188 43.0421 10.9188C39.5463 10.9188 36.7124 13.7527 36.7124 17.2485C36.7124 20.7443 39.5463 23.5782 43.0421 23.5782Z" fill="white"/>
<path d="M169.953 23.5782C173.449 23.5782 176.283 20.7443 176.283 17.2485C176.283 13.7527 173.449 10.9188 169.953 10.9188C166.457 10.9188 163.623 13.7527 163.623 17.2485C163.623 20.7443 166.457 23.5782 169.953 23.5782Z" fill="white"/>
<path d="M61.3302 87.8255H23.6759C22.0806 87.8237 20.5513 87.1892 19.4233 86.0612C18.2953 84.9332 17.6608 83.4039 17.659 81.8087V64.0118C17.6608 62.4166 18.2953 60.8872 19.4233 59.7592C20.5513 58.6312 22.0806 57.9967 23.6759 57.9949H61.3302C62.9254 57.9967 64.4548 58.6312 65.5828 59.7592C66.7108 60.8872 67.3453 62.4166 67.3471 64.0118V81.8087C67.3453 83.4039 66.7108 84.9332 65.5828 86.0612C64.4548 87.1892 62.9254 87.8237 61.3302 87.8255Z" fill="#A687FF"/>
<path d="M125.387 87.8255H87.7322C86.137 87.8237 84.6076 87.1892 83.4797 86.0612C82.3517 84.9332 81.7172 83.4039 81.7154 81.8087V64.0118C81.7172 62.4166 82.3517 60.8872 83.4797 59.7592C84.6076 58.6312 86.137 57.9967 87.7322 57.9949H125.387C126.982 57.9967 128.511 58.6312 129.639 59.7592C130.767 60.8872 131.402 62.4166 131.403 64.0118V81.8087C131.402 83.4039 130.767 84.9332 129.639 86.0612C128.511 87.1892 126.982 87.8237 125.387 87.8255Z" fill="#A687FF"/>
<path d="M125.387 133.808H87.7322C86.0887 133.806 84.5129 133.153 83.3508 131.991C82.1886 130.828 81.5349 129.253 81.533 127.609V109.812C81.5349 108.169 82.1886 106.593 83.3508 105.431C84.5129 104.268 86.0887 103.615 87.7322 103.613H125.387C127.03 103.615 128.606 104.268 129.768 105.431C130.93 106.593 131.584 108.169 131.586 109.812V127.609C131.584 129.253 130.93 130.828 129.768 131.991C128.606 133.153 127.03 133.806 125.387 133.808Z" fill="#F2F2F2"/>
<path d="M61.2067 133.808H23.5524C21.9088 133.806 20.3331 133.153 19.1709 131.991C18.0087 130.828 17.355 129.253 17.3532 127.609V109.812C17.355 108.169 18.0087 106.593 19.1709 105.431C20.3331 104.268 21.9088 103.615 23.5524 103.613H61.2067C62.8503 103.615 64.426 104.268 65.5882 105.431C66.7503 106.593 67.4041 108.169 67.4059 109.812V127.609C67.4041 129.253 66.7503 130.828 65.5882 131.991C64.426 133.153 62.8503 133.806 61.2067 133.808Z" fill="#F2F2F2"/>
<path d="M189.443 133.808H151.789C150.145 133.806 148.569 133.153 147.407 131.991C146.245 130.828 145.591 129.253 145.589 127.609V109.812C145.591 108.169 146.245 106.593 147.407 105.431C148.569 104.268 150.145 103.615 151.789 103.613H189.443C191.086 103.615 192.662 104.268 193.824 105.431C194.987 106.593 195.64 108.169 195.642 109.812V127.609C195.64 129.253 194.987 130.828 193.824 131.991C192.662 133.153 191.086 133.806 189.443 133.808Z" fill="#F2F2F2"/>
<path d="M189.443 87.8613H151.789C150.145 87.8595 148.569 87.2057 147.407 86.0436C146.245 84.8814 145.591 83.3057 145.589 81.6621V63.8651C145.591 62.2215 146.245 60.6458 147.407 59.4836C148.569 58.3215 150.145 57.6677 151.789 57.6659H189.443C191.086 57.6677 192.662 58.3215 193.824 59.4836C194.987 60.6458 195.64 62.2215 195.642 63.8651V81.6621C195.64 83.3057 194.987 84.8814 193.824 86.0436C192.662 87.2057 191.086 87.8595 189.443 87.8613Z" fill="#F2F2F2"/>
<path d="M42.503 83.1207C48.1421 83.1207 52.7134 78.5493 52.7134 72.9102C52.7134 67.2712 48.1421 62.6998 42.503 62.6998C36.8639 62.6998 32.2926 67.2712 32.2926 72.9102C32.2926 78.5493 36.8639 83.1207 42.503 83.1207Z" fill="white"/>
<path d="M41.4909 76.8053C41.2612 76.8057 41.0376 76.7314 40.8538 76.5936L40.8424 76.5851L38.4428 74.7479C38.3316 74.6628 38.2381 74.5566 38.1679 74.4354C38.0977 74.3142 38.0521 74.1803 38.0336 74.0415C38.0152 73.9026 38.0243 73.7615 38.0604 73.6261C38.0965 73.4908 38.159 73.3639 38.2442 73.2527C38.3294 73.1415 38.4356 73.0482 38.5569 72.9781C38.6782 72.908 38.8121 72.8625 38.951 72.8442C39.0899 72.8258 39.231 72.8351 39.3663 72.8713C39.5016 72.9076 39.6285 72.9702 39.7396 73.0555L41.2938 74.2473L44.9667 69.4573C45.0519 69.3462 45.1581 69.2529 45.2793 69.1829C45.4005 69.1129 45.5344 69.0674 45.6732 69.0491C45.812 69.0307 45.953 69.0399 46.0882 69.0761C46.2235 69.1123 46.3503 69.1748 46.4614 69.26L46.4385 69.291L46.4619 69.2604C46.686 69.4327 46.8327 69.6868 46.8697 69.967C46.9066 70.2472 46.831 70.5306 46.6592 70.7551L42.339 76.3893C42.2391 76.5191 42.1106 76.6241 41.9636 76.6963C41.8165 76.7684 41.6547 76.8057 41.4909 76.8053Z" fill="#A687FF"/>
<path d="M106.742 82.9741C112.381 82.9741 116.952 78.4027 116.952 72.7636C116.952 67.1246 112.381 62.5532 106.742 62.5532C101.103 62.5532 96.5313 67.1246 96.5313 72.7636C96.5313 78.4027 101.103 82.9741 106.742 82.9741Z" fill="white"/>
<path d="M105.73 76.6586C105.5 76.6591 105.276 76.5848 105.092 76.447L105.081 76.4385L102.682 74.6013C102.457 74.4293 102.31 74.1753 102.273 73.895C102.236 73.6147 102.312 73.3311 102.484 73.1067C102.656 72.8823 102.91 72.7354 103.19 72.6983C103.47 72.6611 103.754 72.7369 103.978 72.9089L105.533 74.1006L109.205 69.3106C109.291 69.1995 109.397 69.1063 109.518 69.0363C109.639 68.9662 109.773 68.9208 109.912 68.9024C110.051 68.8841 110.192 68.8933 110.327 68.9295C110.462 68.9657 110.589 69.0282 110.7 69.1133L110.677 69.1444L110.701 69.1138C110.925 69.286 111.071 69.5401 111.108 69.8203C111.145 70.1005 111.07 70.384 110.898 70.6085L106.578 76.2426C106.478 76.3725 106.349 76.4775 106.202 76.5497C106.055 76.6218 105.893 76.6591 105.73 76.6586Z" fill="#A687FF"/>
<path d="M175.749 120.945C176.084 120.578 176.335 120.142 176.484 119.668C176.633 119.194 176.676 118.693 176.61 118.2C176.544 117.708 176.371 117.235 176.103 116.817C175.835 116.398 175.478 116.044 175.058 115.778L169.358 85.3404L162.425 87.9111L170.208 117.022C169.808 117.757 169.692 118.613 169.882 119.428C170.071 120.243 170.553 120.961 171.236 121.444C171.919 121.928 172.755 122.144 173.587 122.052C174.419 121.96 175.188 121.566 175.749 120.945Z" fill="#A0616A"/>
<path d="M120.432 74.501C120.449 74.69 120.451 74.8801 120.439 75.0694L133.918 85.4437L137.74 83.8741L140.863 89.3332L134.366 92.7695C133.841 93.0471 133.241 93.147 132.654 93.0541C132.068 92.9612 131.527 92.6806 131.114 92.2544L117.641 78.3641C116.927 78.525 116.182 78.4649 115.504 78.1918C114.826 77.9188 114.247 77.4457 113.844 76.8356C113.441 76.2255 113.234 75.5071 113.249 74.7762C113.265 74.0453 113.502 73.3363 113.93 72.7437C114.358 72.1511 114.957 71.7029 115.646 71.4587C116.335 71.2144 117.082 71.1858 117.788 71.3766C118.494 71.5673 119.125 71.9685 119.597 72.5266C120.069 73.0847 120.36 73.7734 120.432 74.501H120.432Z" fill="#A0616A"/>
<path d="M151.922 174.969H148.043L146.196 163.168L151.923 163.168L151.922 174.969Z" fill="#A0616A"/>
<path d="M152.912 178.73L140.401 178.73V178.572C140.401 177.932 140.527 177.299 140.772 176.708C141.016 176.117 141.375 175.58 141.827 175.128C142.28 174.676 142.816 174.317 143.407 174.073C143.998 173.828 144.631 173.702 145.271 173.702H145.271L152.912 173.702L152.912 178.73Z" fill="#12102B"/>
<path d="M166.481 174.969H162.601L160.755 163.168L166.482 163.168L166.481 174.969Z" fill="#A0616A"/>
<path d="M167.47 178.73L154.959 178.73V178.572C154.959 177.932 155.085 177.299 155.33 176.708C155.575 176.117 155.933 175.58 156.386 175.128C156.838 174.676 157.375 174.317 157.966 174.073C158.556 173.828 159.19 173.702 159.829 173.702H159.829L167.471 173.702L167.47 178.73Z" fill="#12102B"/>
<path d="M147.237 172.637C146.883 172.637 146.541 172.505 146.279 172.267C146.017 172.028 145.853 171.701 145.82 171.348L142.439 125.872L142.599 125.859L165.867 123.947L165.874 124.112L167.723 171.221C167.731 171.413 167.699 171.603 167.631 171.782C167.562 171.961 167.459 172.125 167.326 172.262C167.193 172.4 167.034 172.51 166.857 172.585C166.681 172.66 166.492 172.699 166.3 172.699H161.738C161.397 172.7 161.067 172.579 160.809 172.357C160.55 172.135 160.38 171.828 160.33 171.491L154.135 133.435C154.129 133.396 154.108 133.36 154.077 133.335C154.046 133.311 154.006 133.298 153.967 133.301C153.927 133.304 153.89 133.322 153.863 133.351C153.836 133.38 153.82 133.418 153.82 133.458L153.539 171.032C153.536 171.395 153.395 171.743 153.144 172.006C152.894 172.268 152.552 172.425 152.19 172.444L147.313 172.635C147.288 172.636 147.262 172.637 147.237 172.637Z" fill="#12102B"/>
<path d="M151.208 68.4008C155.501 68.4008 158.981 64.9206 158.981 60.6275C158.981 56.3345 155.501 52.8543 151.208 52.8543C146.915 52.8543 143.435 56.3345 143.435 60.6275C143.435 64.9206 146.915 68.4008 151.208 68.4008Z" fill="#A0616A"/>
<path d="M152.713 128.772C149.316 128.762 145.934 128.3 142.659 127.398C142.344 127.307 142.07 127.109 141.883 126.839C141.697 126.569 141.609 126.242 141.635 125.915C142.681 110.188 142.927 97.983 140.727 89.5385C139.789 85.9394 140.215 82.1488 141.895 79.1388C144.424 74.6089 149.071 71.8519 154.029 71.9471C154.266 71.9515 154.505 71.96 154.747 71.9724C162.271 72.3598 168.133 79.1663 167.816 87.1454L166.303 125.177C166.297 125.455 166.209 125.724 166.051 125.952C165.892 126.18 165.67 126.355 165.412 126.457C161.352 127.984 157.051 128.769 152.713 128.772Z" fill="#9587FF"/>
<path d="M142.006 92.4586L136.183 85.3236C136.018 85.1206 135.898 84.8842 135.832 84.6307C135.765 84.3771 135.755 84.1123 135.8 83.8542C135.846 83.5962 135.946 83.351 136.095 83.1353C136.244 82.9196 136.437 82.7385 136.663 82.6044L144.55 77.9045C145.593 77.0626 146.928 76.6689 148.261 76.8096C149.595 76.9504 150.818 77.6142 151.663 78.6554C152.507 79.6967 152.904 81.0304 152.767 82.3641C152.63 83.6978 151.969 84.9227 150.93 85.77L144.766 92.5343C144.589 92.7279 144.373 92.8812 144.132 92.9838C143.891 93.0863 143.631 93.1356 143.369 93.1285C143.107 93.1213 142.849 93.0577 142.614 92.9421C142.379 92.8265 142.172 92.6616 142.006 92.4586Z" fill="#9587FF"/>
<path d="M160.322 91.5633C160.083 91.4563 159.87 91.2989 159.697 91.1019C159.524 90.905 159.396 90.6731 159.321 90.422L156.7 81.6536C156.131 80.4395 156.067 79.0492 156.521 77.7877C156.976 76.5263 157.912 75.4966 159.125 74.9246C160.338 74.3526 161.728 74.2849 162.991 74.7364C164.253 75.1879 165.285 76.1218 165.86 77.3331L170.929 84.9884C171.074 85.2069 171.17 85.454 171.21 85.7129C171.251 85.9717 171.235 86.2363 171.164 86.4886C171.093 86.7408 170.969 86.9748 170.799 87.1746C170.63 87.3744 170.419 87.5354 170.182 87.6465L161.841 91.5507C161.604 91.6619 161.345 91.7206 161.083 91.7228C160.821 91.7249 160.562 91.6705 160.322 91.5633Z" fill="#9587FF"/>
<path d="M155.049 67.0056L149.288 65.6868C148.693 65.5508 147.979 65.2912 147.897 64.6871C147.786 63.8753 148.954 63.3097 148.846 62.4975C148.742 61.7108 147.678 61.6094 146.919 61.3772C146.212 61.1292 145.63 60.616 145.295 59.9462C144.959 59.2763 144.898 58.5024 145.124 57.7881C144.303 58.9452 142.427 59.0443 141.362 58.1069C140.297 57.1694 140.093 55.4686 140.732 54.2021C141.078 53.5801 141.565 53.0483 142.155 52.6501C142.745 52.2519 143.42 51.9986 144.126 51.9106C145.546 51.7496 146.981 52.0172 148.248 52.679C148.332 51.7823 149.452 51.4187 150.352 51.4107C152.223 51.4325 154.041 52.037 155.552 53.1401C157.064 54.2432 158.193 55.79 158.785 57.5652C159.89 61.1264 159.15 65.03 156.058 67.1136L155.049 67.0056Z" fill="#12102B"/>
<path d="M213.086 178.815H92.505C92.421 178.815 92.3405 178.781 92.2812 178.722C92.2218 178.663 92.1885 178.582 92.1885 178.498C92.1885 178.414 92.2218 178.334 92.2812 178.274C92.3405 178.215 92.421 178.182 92.505 178.182H213.086C213.17 178.182 213.251 178.215 213.31 178.274C213.369 178.334 213.403 178.414 213.403 178.498C213.403 178.582 213.369 178.663 213.31 178.722C213.251 178.781 213.17 178.815 213.086 178.815Z" fill="white"/>
</g>
<defs>
<clipPath id="clip0_18_268">
<rect width="270" height="178.815" fill="white"/>
</clipPath>
</defs>
</svg>
