<svg width="55" height="39" viewBox="0 0 55 39" fill="none" xmlns="http://www.w3.org/2000/svg">
<rect width="55" height="38.2317" rx="3.35366" fill="white"/>
<path d="M18.023 17.1905L26.6307 8.58275C26.8613 8.35222 27.174 8.22272 27.5001 8.22272C27.8261 8.22272 28.1388 8.35222 28.3694 8.58275L36.9772 17.1905C37.2078 17.421 37.3374 17.7337 37.3375 18.0599V29.8475C37.3375 30.1736 37.2079 30.4864 36.9773 30.717C36.7467 30.9476 36.4339 31.0772 36.1078 31.0772H29.9594V22.4695H25.0407V31.0772H18.8923C18.5662 31.0772 18.2534 30.9476 18.0228 30.717C17.7922 30.4864 17.6627 30.1736 17.6627 29.8475V18.0599C17.6627 17.7337 17.7923 17.421 18.023 17.1905Z" fill="#9587FF"/>
</svg>
