<svg width="157" height="192" viewBox="0 0 157 192" fill="none" xmlns="http://www.w3.org/2000/svg">
<path d="M96.3175 100.51H5.4707C4.02028 100.508 2.62974 99.9315 1.60414 98.9059C0.57854 97.8803 0.00163839 96.4897 0 95.0393V29.7225C0.00163751 28.2721 0.57854 26.8815 1.60414 25.8559C2.62974 24.8303 4.02028 24.2534 5.4707 24.2518H96.3175C97.7679 24.2534 99.1584 24.8303 100.184 25.8559C101.21 26.8815 101.787 28.2721 101.788 29.7225V95.0393C101.787 96.4897 101.21 97.8803 100.184 98.9059C99.1584 99.9315 97.7679 100.508 96.3175 100.51Z" fill="#E6E6E6"/>
<path d="M7.14996 96.1491H94.6382C95.3417 96.1491 96.0164 95.8696 96.5138 95.3722C97.0112 94.8747 97.2907 94.2001 97.2907 93.4966V31.2651C97.2907 30.5617 97.0112 29.887 96.5138 29.3896C96.0164 28.8921 95.3417 28.6127 94.6382 28.6127H7.14996C6.44648 28.6127 5.77182 28.8921 5.27438 29.3896C4.77695 29.887 4.4975 30.5617 4.4975 31.2651V93.4966C4.4975 94.2001 4.77695 94.8747 5.27438 95.3722C5.77182 95.8696 6.44648 96.1491 7.14996 96.1491Z" fill="white"/>
<path d="M13.6174 60.4844C13.0928 60.4844 12.5897 60.6928 12.2187 61.0637C11.8478 61.4346 11.6394 61.9377 11.6394 62.4623C11.6394 62.9869 11.8478 63.49 12.2187 63.861C12.5897 64.2319 13.0928 64.4403 13.6174 64.4403H88.1709C88.6954 64.4403 89.1985 64.2319 89.5695 63.861C89.9404 63.49 90.1488 62.9869 90.1488 62.4623C90.1488 61.9377 89.9404 61.4346 89.5695 61.0637C89.1985 60.6928 88.6954 60.4844 88.1709 60.4844H13.6174Z" fill="#E6E6E6"/>
<path d="M13.6174 72.6564C13.0928 72.6564 12.5897 72.8648 12.2187 73.2357C11.8478 73.6066 11.6394 74.1097 11.6394 74.6343C11.6394 75.1589 11.8478 75.662 12.2187 76.033C12.5897 76.4039 13.0928 76.6123 13.6174 76.6123H88.1709C88.6954 76.6123 89.1985 76.4039 89.5695 76.033C89.9404 75.662 90.1488 75.1589 90.1488 74.6343C90.1488 74.1097 89.9404 73.6066 89.5695 73.2357C89.1985 72.8648 88.6954 72.6564 88.1709 72.6564H13.6174Z" fill="#E6E6E6"/>
<path d="M46.9382 85.437C46.4136 85.437 45.9105 85.6454 45.5395 86.0163C45.1686 86.3873 44.9602 86.8904 44.9602 87.415C44.9602 87.9395 45.1686 88.4427 45.5395 88.8136C45.9105 89.1845 46.4136 89.3929 46.9382 89.3929H54.85C55.3745 89.3929 55.8776 89.1845 56.2486 88.8136C56.6195 88.4427 56.8279 87.9395 56.8279 87.415C56.8279 86.8904 56.6195 86.3873 56.2486 86.0163C55.8776 85.6454 55.3745 85.437 54.85 85.437H46.9382Z" fill="#A687FF"/>
<path d="M40.2923 35.3688C40.131 35.369 39.9762 35.4332 39.8621 35.5473C39.748 35.6614 39.6839 35.8161 39.6837 35.9774V51.4268C39.6839 51.5881 39.748 51.7428 39.8621 51.8569C39.9762 51.971 40.131 52.0352 40.2923 52.0354H61.4958C61.6572 52.0352 61.8119 51.971 61.926 51.8569C62.0401 51.7428 62.1043 51.5881 62.1044 51.4268V35.9774C62.1043 35.8161 62.0401 35.6614 61.926 35.5473C61.8119 35.4332 61.6572 35.369 61.4958 35.3688L40.2923 35.3688Z" fill="#A687FF"/>
<path d="M50.8941 45.3407C52.7427 45.3407 54.2414 43.8421 54.2414 41.9934C54.2414 40.1448 52.7427 38.6461 50.8941 38.6461C49.0454 38.6461 47.5468 40.1448 47.5468 41.9934C47.5468 43.8421 49.0454 45.3407 50.8941 45.3407Z" fill="white"/>
<path d="M56.3715 50.5138C56.3726 51.0428 56.2474 51.5644 56.0063 52.0353H45.7818C45.5213 51.525 45.3961 50.9563 45.4183 50.3837C45.4405 49.8112 45.6093 49.2539 45.9086 48.7653C46.2079 48.2767 46.6276 47.873 47.1275 47.5931C47.6275 47.3132 48.1909 47.1663 48.7639 47.1665H53.0241C53.9114 47.166 54.7625 47.518 55.3903 48.145C56.018 48.772 56.371 49.6228 56.3715 50.51V50.5138Z" fill="white"/>
<path d="M50.8941 45.3407C52.7427 45.3407 54.2414 43.8421 54.2414 41.9934C54.2414 40.1448 52.7427 38.6461 50.8941 38.6461C49.0454 38.6461 47.5468 40.1448 47.5468 41.9934C47.5468 43.8421 49.0454 45.3407 50.8941 45.3407Z" fill="white"/>
<path d="M56.3715 50.5138C56.3726 51.0428 56.2474 51.5644 56.0063 52.0353H45.7818C45.5213 51.525 45.3961 50.9563 45.4183 50.3837C45.4405 49.8112 45.6093 49.2539 45.9086 48.7653C46.2079 48.2767 46.6276 47.873 47.1275 47.5931C47.6275 47.3132 48.1909 47.1663 48.7639 47.1665H53.0241C53.9114 47.166 54.7625 47.518 55.3903 48.145C56.018 48.772 56.371 49.6228 56.3715 50.51V50.5138Z" fill="white"/>
<path d="M50.8941 15.8236C55.2637 15.8236 58.8059 12.2814 58.8059 7.9118C58.8059 3.54223 55.2637 0 50.8941 0C46.5245 0 42.9823 3.54223 42.9823 7.9118C42.9823 12.2814 46.5245 15.8236 50.8941 15.8236Z" fill="#E6E6E6"/>
<path d="M50.8941 11.8677C53.0789 11.8677 54.85 10.0966 54.85 7.91183C54.85 5.72705 53.0789 3.95593 50.8941 3.95593C48.7093 3.95593 46.9382 5.72705 46.9382 7.91183C46.9382 10.0966 48.7093 11.8677 50.8941 11.8677Z" fill="#A687FF"/>
<path d="M111.871 187.102L108.081 187.102L106.278 172.482L111.872 172.482L111.871 187.102Z" fill="#FFB8B8"/>
<path d="M105.373 186.019H112.683V190.622H100.771C100.771 190.017 100.89 189.419 101.121 188.86C101.352 188.302 101.691 187.795 102.119 187.367C102.546 186.94 103.053 186.601 103.612 186.369C104.17 186.138 104.769 186.019 105.373 186.019Z" fill="#12102B"/>
<path d="M132.302 187.102L128.512 187.102L126.709 172.482L132.304 172.482L132.302 187.102Z" fill="#FFB8B8"/>
<path d="M125.804 186.019H133.114V190.622H121.202C121.202 190.017 121.321 189.419 121.552 188.86C121.783 188.302 122.122 187.795 122.55 187.367C122.977 186.94 123.484 186.601 124.043 186.369C124.601 186.138 125.2 186.019 125.804 186.019Z" fill="#12102B"/>
<path d="M121.201 83.1674C125.699 83.1674 129.345 79.5215 129.345 75.024C129.345 70.5265 125.699 66.8806 121.201 66.8806C116.704 66.8806 113.058 70.5265 113.058 75.024C113.058 79.5215 116.704 83.1674 121.201 83.1674Z" fill="#FFB8B8"/>
<path d="M93.3563 128.132C93.4132 127.681 93.5683 127.248 93.8106 126.864C94.0529 126.479 94.3766 126.153 94.7588 125.907C95.1411 125.661 95.5726 125.502 96.023 125.441C96.4733 125.379 96.9317 125.418 97.3656 125.553L101.917 120.097L105.907 122.054L99.3714 129.669C99.096 130.382 98.5682 130.971 97.8881 131.321C97.2081 131.672 96.4229 131.761 95.6815 131.572C94.9401 131.383 94.2938 130.928 93.8653 130.294C93.4368 129.66 93.2557 128.891 93.3563 128.132Z" fill="#FFB8B8"/>
<path d="M132.524 133.65C132.331 133.239 132.229 132.79 132.227 132.336C132.225 131.881 132.323 131.432 132.514 131.019C132.705 130.607 132.983 130.241 133.331 129.948C133.678 129.654 134.085 129.441 134.524 129.322L135.438 122.277L139.855 121.788L138.425 131.719C138.575 132.47 138.446 133.249 138.06 133.91C137.674 134.571 137.059 135.067 136.332 135.305C135.605 135.543 134.816 135.506 134.114 135.201C133.412 134.896 132.846 134.344 132.524 133.65L132.524 133.65Z" fill="#FFB8B8"/>
<path d="M128.007 90.4051C128.44 89.8491 129.012 89.4172 129.665 89.1529C130.319 88.8886 131.03 88.8013 131.728 88.8998C132.426 88.9984 133.085 89.2793 133.64 89.7141C134.195 90.149 134.625 90.7225 134.887 91.3767L141.561 108.034C142.244 109.736 142.461 111.589 142.192 113.403L140.018 128.044C139.99 128.233 139.921 128.414 139.817 128.574C139.712 128.734 139.575 128.869 139.413 128.971C139.252 129.073 139.07 129.139 138.881 129.164C138.691 129.189 138.499 129.173 138.316 129.117L135.452 128.238C135.155 128.147 134.9 127.955 134.731 127.695C134.561 127.435 134.488 127.124 134.524 126.816C135.535 118.196 134.199 109.463 130.657 101.54L127.51 94.5021C127.214 93.8384 127.103 93.1065 127.19 92.3847C127.278 91.663 127.56 90.9787 128.007 90.4051Z" fill="#A687FF"/>
<path d="M123.184 83.1671C124.41 83.1936 125.627 82.9604 126.756 82.4829C127.885 82.0054 128.9 81.2943 129.735 80.3965C130.57 79.4987 131.205 78.4344 131.599 77.2735C131.993 76.1127 132.137 74.8816 132.022 73.6612C131.906 72.4407 131.533 71.2586 130.928 70.1924C130.323 69.1262 129.499 68.2002 128.511 67.4751C127.522 66.7499 126.392 66.2422 125.193 65.9853C123.994 65.7283 122.755 65.7279 121.556 65.984C119.765 64.8967 117.683 64.165 115.596 64.3511C113.51 64.5372 111.446 65.7761 110.666 67.7204C109.885 69.6647 110.724 72.2277 112.664 73.0178C113.908 73.5244 115.313 73.2787 116.64 73.0745C117.968 72.8702 119.416 72.7369 120.571 73.4218C121.727 74.1068 122.246 75.9435 121.211 76.7999C120.663 77.2718 120.271 77.8997 120.088 78.5998C119.906 79.3 119.941 80.0392 120.189 80.719C120.709 82.0639 122.128 83.1443 123.184 83.1671Z" fill="#12102B"/>
<path d="M133.288 127.81L134.732 182.63C134.737 182.813 134.704 182.994 134.635 183.164C134.566 183.333 134.463 183.486 134.333 183.614C134.202 183.742 134.046 183.841 133.875 183.905C133.704 183.97 133.521 183.999 133.339 183.989L128.58 183.746C128.277 183.731 127.988 183.612 127.761 183.408C127.535 183.205 127.386 182.93 127.338 182.63L121.678 147.025C121.654 146.872 121.577 146.733 121.461 146.631C121.346 146.529 121.198 146.471 121.044 146.466C120.89 146.461 120.738 146.51 120.617 146.605C120.495 146.699 120.41 146.833 120.376 146.984L112.714 181.266C112.674 181.449 112.594 181.622 112.482 181.772C112.369 181.922 112.226 182.047 112.061 182.138C111.897 182.228 111.715 182.283 111.528 182.298C111.341 182.314 111.153 182.289 110.976 182.226L106.253 181.938C105.98 181.841 105.746 181.657 105.588 181.414C105.429 181.171 105.354 180.883 105.375 180.594L109.497 127.291L133.288 127.81Z" fill="#12102B"/>
<path d="M135.606 101.773C136.403 93.4656 130.295 85.9517 121.97 85.3606C118.383 85.1059 112.815 85.0148 110.98 89.7161C105.45 103.878 115.13 103.534 111.795 115.804C108.46 128.074 105.514 128.777 110.09 129.663C114.666 130.549 135.244 135.779 134.399 127.143C133.88 121.835 134.811 110.059 135.606 101.773Z" fill="#A687FF"/>
<path d="M111.959 88.2755C112.616 88.0211 113.329 87.9446 114.025 88.0536C114.721 88.1627 115.376 88.4535 115.924 88.8967C116.472 89.3399 116.894 89.9198 117.146 90.5779C117.398 91.2359 117.472 91.9489 117.361 92.6448L114.762 108.888C114.318 111.666 113.143 114.275 111.358 116.45L102.917 126.736C102.796 126.884 102.644 127.004 102.473 127.087C102.301 127.171 102.113 127.216 101.922 127.221C101.731 127.225 101.542 127.188 101.367 127.113C101.191 127.037 101.034 126.924 100.906 126.782L98.9014 124.556C98.6937 124.325 98.5735 124.029 98.5616 123.719C98.5498 123.409 98.647 123.104 98.8364 122.859L99.4269 122.092C104.338 115.719 107.436 108.138 108.394 100.15L109.427 91.5347C109.514 90.8129 109.795 90.1282 110.241 89.5541C110.687 88.9799 111.281 88.538 111.959 88.2755Z" fill="#A687FF"/>
<path d="M156.495 191.408H70.9533C70.8654 191.408 70.7811 191.373 70.7189 191.311C70.6567 191.248 70.6218 191.164 70.6218 191.076C70.6218 190.988 70.6567 190.904 70.7189 190.842C70.7811 190.78 70.8654 190.745 70.9533 190.745H156.495C156.583 190.745 156.667 190.78 156.73 190.842C156.792 190.904 156.827 190.988 156.827 191.076C156.827 191.164 156.792 191.248 156.73 191.311C156.667 191.373 156.583 191.408 156.495 191.408Z" fill="#CCCCCC"/>
</svg>
